Coordinates
version=1
nRows=17
nColumns=38
inDegrees=no

Units are S.I. units (second, meters, Newtons, ...)
If the header above contains a line with 'inDegrees', this indicates whether rotational values are in degrees (yes) or radians (no).

endheader
time	pelvis_tilt	pelvis_list	pelvis_rotation	pelvis_tx	pelvis_ty	pelvis_tz	hip_flexion_r	hip_adduction_r	hip_rotation_r	knee_angle_r	ankle_angle_r	subtalar_angle_r	mtp_angle_r	hip_flexion_l	hip_adduction_l	hip_rotation_l	knee_angle_l	ankle_angle_l	subtalar_angle_l	mtp_angle_l	lumbar_extension	lumbar_bending	lumbar_rotation	arm_flex_r	arm_add_r	arm_rot_r	elbow_flex_r	pro_sup_r	wrist_flex_r	wrist_dev_r	arm_flex_l	arm_add_l	arm_rot_l	elbow_flex_l	pro_sup_l	wrist_flex_l	wrist_dev_l
1.82	-3.13898	1.3439	-1.50074	0.753491	1.82293	0.94059	-0.199162	0.0307474	-0.45388	0.359591	-0.116588	0	0	0.247028	0.0257	0.128751	1.37413	-0.0722228	0	0	-0.369487	0.142724	0.382841	-0.68185	-0.350796	-0.108144	1.03086	1.03314	0	0	0.253164	-0.0210691	0.325621	0	1.5708	0	0
1.83	3.08521	1.3185	-1.47162	0.758577	1.83444	0.941294	-0.25199	0.0558701	-0.44004	0.314256	-0.124198	0	0	0.25475	-0.15736	-0.192584	1.36318	-0.131343	0	0	-0.391296	0.151853	0.425739	-0.705754	-0.343623	-0.12165	1.04971	1.03328	0	0	0.253234	-0.0191737	0.331863	0	1.5708	0	0
1.84	3.08922	1.31887	-1.47745	0.759261	1.84145	0.940966	-0.26408	0.0574304	-0.436006	0.303042	-0.12662	0	0	0.268578	-0.158307	-0.207273	1.32329	-0.139881	0	0	-0.394044	0.149625	0.431737	-0.707025	-0.341634	-0.126435	1.05276	1.03243	0	0	0.257717	-0.0173738	0.335271	0	1.5708	0	0
1.85	3.09289	1.32048	-1.48305	0.759938	1.84847	0.940546	-0.27446	0.0586687	-0.432174	0.29258	-0.127951	0	0	0.281271	-0.160045	-0.22559	1.27787	-0.14972	0	0	-0.395442	0.146873	0.436671	-0.706379	-0.339414	-0.130516	1.05379	1.03134	0	0	0.261454	-0.0160547	0.338651	0	1.5708	0	0
1.86	3.09618	1.32206	-1.48933	0.760672	1.85544	0.940101	-0.28485	0.0597625	-0.427132	0.28206	-0.128714	0	0	0.291137	-0.162467	-0.24908	1.22956	-0.16036	0	0	-0.39647	0.143627	0.441931	-0.705097	-0.337993	-0.133685	1.05434	1.03084	0	0	0.264894	-0.0147245	0.341945	0	1.5708	0	0
1.87	3.09991	1.3238	-1.49551	0.761416	1.8626	0.939632	-0.295977	0.0611422	-0.422642	0.270027	-0.129347	0	0	0.298253	-0.165134	-0.27647	1.18017	-0.170096	0	0	-0.396669	0.140222	0.446132	-0.703158	-0.336351	-0.135774	1.05374	1.03035	0	0	0.267707	-0.0139767	0.345146	0	1.5708	0	0
1.88	3.0994	1.32375	-1.49698	0.761998	1.86983	0.939409	-0.307653	0.0629623	-0.41649	0.262685	-0.12976	0	0	0.300525	-0.168957	-0.307074	1.12997	-0.177701	0	0	-0.398449	0.138036	0.449444	-0.700195	-0.335992	-0.136383	1.05174	1.03063	0	0	0.270041	-0.0131839	0.348004	0	1.5708	0	0
1.89	3.03126	1.27997	-1.4267	0.761307	1.87612	0.945783	-0.20025	-0.0158515	-0.45646	0.779544	-0.0313187	0	0	0.249237	-0.200984	-0.353337	1.0613	-0.213886	0	0	-0.44881	0.158243	0.454365	-0.687556	-0.349697	-0.12563	1.0435	1.02357	0	0	0.276449	-0.00625518	0.353311	0	1.5708	0	0
1.9	3.03131	1.28317	-1.4242	0.761376	1.88362	0.945144	-0.20928	-0.0133419	-0.455974	0.772764	-0.0279161	0	0	0.252664	-0.200973	-0.383918	1.01097	-0.210639	0	0	-0.462599	0.156957	0.460796	-0.690629	-0.349337	-0.123855	1.03734	1.02169	0	0	0.255229	-0.0182066	0.350635	0	1.56999	0	0
1.91	3.02456	1.28519	-1.41888	0.761398	1.89122	0.944082	-0.217771	-0.0115802	-0.455966	0.76982	-0.025349	0	0	0.253025	-0.20159	-0.41076	0.964973	-0.205029	0	0	-0.447196	0.158981	0.447232	-0.680584	-0.354094	-0.122724	1.04302	1.02158	0	0	0.273865	-0.00804171	0.348556	0	1.5708	0	0
1.92	3.02316	1.28802	-1.416	0.761191	1.89875	0.943005	-0.226368	-0.0098652	-0.455517	0.765325	-0.0213822	0	0	0.253188	-0.199736	-0.440681	0.915728	-0.197751	0	0	-0.443538	0.158917	0.447237	-0.679625	-0.355448	-0.120335	1.04064	1.02127	0	0	0.275371	-0.00678889	0.347527	0	1.5708	0	0
1.93	3.02651	1.29223	-1.41827	0.760892	1.90645	0.941735	-0.230352	-0.0105771	-0.453842	0.769822	-0.0126094	0	0	0.251855	-0.195773	-0.474403	0.863917	-0.187412	0	0	-0.439229	0.15722	0.445236	-0.677672	-0.358392	-0.11535	1.03826	1.01975	0	0	0.274959	-0.00676496	0.345788	0	1.5708	0	0
1.94	3.02493	1.29856	-1.41356	0.760334	1.91418	0.940066	-0.232286	-0.00992817	-0.454402	0.773887	-0.00444525	0	0	0.254576	-0.188707	-0.495352	0.817218	-0.172608	0	0	-0.432471	0.157982	0.440603	-0.676761	-0.362542	-0.109589	1.0381	1.01467	0	0	0.273635	-0.00693922	0.342318	0	1.5708	0	0
1.95	-3.13858	1.34294	-1.49212	0.757362	1.91563	0.940255	-0.194064	-0.0336069	-0.462442	0.766807	-0.00137539	0	0	0.160357	0.0468994	0.117058	0.365724	-0.123674	0	0	-0.396665	0.121957	0.352258	-0.587924	-0.3888	-0.0220116	0.970755	0.997864	0	0	0.27144	-0.0269694	0.304605	0	1.5708	0	0
1.96	3.13546	1.34444	-1.48133	0.756961	1.92395	0.938815	-0.204669	-0.0293758	-0.462387	0.761925	0.00239561	0	0	0.146916	0.0461324	0.0918219	0.286351	-0.128664	0	0	-0.393975	0.125259	0.351569	-0.591231	-0.391164	-0.0199389	0.973889	0.989238	0	0	0.269718	-0.0264857	0.303135	0	1.5708	0	0
1.97	3.01425	1.31802	-1.38332	0.75734	1.93758	0.935203	-0.251129	-0.000734085	-0.461149	0.748054	0.00473364	0	0	0.259752	-0.152669	-0.515837	0.685425	-0.106102	0	0	-0.408305	0.165045	0.406552	-0.663916	-0.390412	-0.0636804	1.03341	0.973937	0	0	0.264537	-0.010918	0.316164	0	1.5708	0	0
1.98	3.01079	1.32026	-1.37596	0.756409	1.94536	0.933711	-0.258845	0.0023815	-0.457184	0.745158	0.00635667	0	0	0.256819	-0.147899	-0.544429	0.661608	-0.0922065	0	0	-0.406999	0.167259	0.407552	-0.66881	-0.388129	-0.0705154	1.03631	0.971041	0	0	0.265558	-0.00867316	0.320028	0	1.5708	0	0
